<svg xmlns="http://www.w3.org/2000/svg" version="1.1" xmlns:xlink="http://www.w3.org/1999/xlink" xmlns:svgjs="http://svgjs.dev/svgjs" width="1500" height="1500" viewBox="0 0 1500 1500"><rect width="1500" height="1500" fill="#282634"></rect><g transform="matrix(0.6666666666666666,0,0,0.6666666666666666,249.50907266267052,74.16021505376358)"><svg viewBox="0 0 184 248" data-background-color="#282634" preserveAspectRatio="xMidYMid meet" height="2021" width="1500" xmlns="http://www.w3.org/2000/svg" xmlns:xlink="http://www.w3.org/1999/xlink"><g id="tight-bounds" transform="matrix(1,0,0,1,0.09033063006862108,0.4000000000000057)"><svg viewBox="0 0 183.81933873986276 247.2" height="247.2" width="183.81933873986276"><g><svg viewBox="0 0 183.81933873986276 247.2" height="247.2" width="183.81933873986276"><g><svg viewBox="0 0 183.81933873986276 247.2" height="247.2" width="183.81933873986276"><g id="textblocktransform"><svg viewBox="0 0 183.81933873986276 247.2" height="247.2" width="183.81933873986276" id="textblock"><g><svg viewBox="0 0 183.81933873986276 247.2" height="247.2" width="183.81933873986276"><g transform="matrix(1,0,0,1,0,0)"><svg width="183.81933873986276" viewBox="4.83 -38.43 29.11 39.14" height="247.2" data-palette-color="#ff4057"><g class="wordmark-text-0" data-fill-palette-color="primary" id="text-0"><path d="M4.96-2.27L4.96-2.27Q4.96-10.57 4.92-18.77 4.88-26.98 4.83-35.3L4.83-35.3Q4.83-36.99 5.55-37.71 6.27-38.43 7.79-38.43L7.79-38.43Q8.35-38.43 8.86-38.26 9.38-38.09 9.77-37.76 10.16-37.43 10.39-36.96 10.62-36.5 10.62-35.91L10.62-35.91Q10.62-32.42 10.61-29.27 10.6-26.12 10.57-22.92L10.57-22.92 23.58-35.23Q23.85-35.62 24.43-36.17 25-36.72 25.67-37.22 26.34-37.72 27.01-38.07 27.69-38.43 28.2-38.43L28.2-38.43Q28.76-38.43 29.27-38.28 29.79-38.13 30.16-37.82 30.54-37.5 30.77-36.99 31.01-36.47 31.01-35.77L31.01-35.77Q31.01-35.01 30.77-34.46 30.54-33.91 30.15-33.48 29.76-33.06 29.28-32.73 28.81-32.4 28.3-32.1L28.3-32.1Q24.8-29 21.24-26.04 17.68-23.07 14.01-19.97L14.01-19.97Q15.63-19.53 17.18-18.49 18.73-17.46 20.14-16.1 21.56-14.75 22.77-13.21 23.97-11.67 24.9-10.23L24.9-10.23Q25.61-9.13 26.31-8.11 27-7.08 27.67-6.31 28.34-5.54 28.99-5.08 29.64-4.61 30.27-4.61L30.27-4.61Q30.79-4.61 31.42-4.58 32.06-4.54 32.62-4.31 33.18-4.08 33.56-3.59 33.94-3.1 33.94-2.2L33.94-2.2Q33.94-1.2 33.52-0.61 33.11-0.02 32.47 0.27 31.84 0.56 31.04 0.63 30.25 0.71 29.49 0.71L29.49 0.71Q28.1 0.71 26.84-0.01 25.59-0.73 24.45-1.92 23.32-3.1 22.27-4.59 21.22-6.08 20.19-7.62L20.19-7.62Q19.26-9.01 18.18-10.44 17.09-11.87 15.86-13.07 14.62-14.28 13.28-15.19 11.94-16.09 10.55-16.46L10.55-16.46 10.55-13.72Q10.55-10.99 10.56-8.47 10.57-5.96 10.6-3.98L10.6-3.98Q10.67-3.3 10.69-2.77 10.72-2.25 10.74-1.76L10.74-1.76Q10.74-0.49 9.92 0.11 9.11 0.71 7.67 0.71L7.67 0.71Q7.35 0.71 6.88 0.6 6.42 0.49 5.99 0.16 5.57-0.17 5.26-0.76 4.96-1.34 4.96-2.27Z" fill="#ff4057" data-fill-palette-color="primary"></path></g></svg></g></svg></g></svg></g></svg></g><g></g></svg></g><defs></defs></svg><rect width="183.81933873986276" height="247.2" fill="none" stroke="none" visibility="hidden"></rect></g></svg></g></svg>